mtllib materials.mtl
v 0 0.3249998 0.1584374
v 0.08 0.3249998 0.1370015
v 0.08 0.004999876 0.1370015
v 0 0.004999876 0.1584374
v 0.1385641 0.3249998 0.07843745
v 0.1385641 0.004999876 0.07843745
v 0.16 0.3249998 -0.001562595
v 0.16 0.004999876 -0.001562595
v 0.1385641 0.3249998 -0.08156258
v 0.1385641 0.004999876 -0.08156258
v 0.08000001 0.3249998 -0.1401266
v 0.08000001 0.004999876 -0.1401266
v 0 0.3249998 -0.1615626
v 0 0.004999876 -0.1615626
v -0.08000004 0.3249998 -0.1401266
v -0.08000004 0.004999876 -0.1401266
v -0.1385641 0.3249998 -0.08156258
v -0.1385641 0.004999876 -0.08156258
v -0.16 0.3249998 -0.001562595
v -0.16 0.004999876 -0.001562595
v -0.1385641 0.3249998 0.07843733
v -0.1385641 0.004999876 0.07843733
v -0.07999995 0.3249998 0.1370015
v -0.07999995 0.004999876 0.1370015
v -0.1600001 0.004999757 -0.001562595
v -0.1385642 0.004999638 0.07843733
v -0.1385641 -0.3150002 0.07843733
v -0.16 -0.3150002 -0.001562715
v -0.08000013 0.004999638 0.1370015
v -0.08000007 -0.3150002 0.1370014
v -1.490116E-07 0.004999757 0.1584374
v -8.940697E-08 -0.3150002 0.1584374
v 0.07999986 0.004999757 0.1370015
v 0.07999991 -0.3150002 0.1370015
v 0.1385639 0.004999757 0.07843745
v 0.138564 -0.3150002 0.07843745
v 0.1599999 0.004999757 -0.001562476
v 0.1599999 -0.3150001 -0.001562595
v 0.138564 0.004999757 -0.08156252
v 0.138564 -0.3150001 -0.08156258
v 0.07999994 0.004999757 -0.1401266
v 0.08 -0.3150001 -0.1401266
v -2.980232E-08 0.004999757 -0.1615626
v 2.980232E-08 -0.3150001 -0.1615626
v -0.08000001 0.004999757 -0.1401266
v -0.07999995 -0.3150002 -0.1401267
v -0.1385642 0.004999757 -0.08156258
v -0.1385641 -0.3150002 -0.08156264
v -0.1799999 0.3049999 0.1784374
v -0.1799999 0.3612499 0.1784375
v 0.1799999 0.3612499 0.1784375
v 0.1799999 0.3049999 0.1784375
v -0.1799999 0.3049999 -0.1815624
v 0.1799999 0.3049999 -0.1815623
v 0.1799999 0.3612499 -0.1815624
v -0.1799999 0.3612499 -0.1815624
v 0.1799999 -0.3150002 0.1846874
v 0.1799999 -0.3712501 0.1846875
v -0.1799999 -0.3712501 0.1846873
v -0.1799999 -0.3150002 0.1846873
v -0.1799999 -0.3712501 -0.1753125
v 0.1799999 -0.3712501 -0.1753125
v 0.1799999 -0.3150002 -0.1753124
v -0.1799999 -0.3150002 -0.1753125
vn 0.258819 -1.074534E-09 0.9659258
vn 0.7071069 -7.912044E-09 0.7071067
vn 0.9659259 1.546746E-08 0.258819
vn 0.9659259 -1.452721E-08 -0.258819
vn 0.7071068 -8.413014E-09 -0.7071069
vn 0.258819 6.743693E-10 -0.9659259
vn -0.2588193 1.184742E-10 -0.9659258
vn -0.7071069 3.13097E-09 -0.7071067
vn -0.9659258 1.513477E-08 -0.258819
vn -0.9659258 -6.359141E-09 0.258819
vn -0.7071069 -8.84043E-10 0.7071067
vn -0.2588188 3.761233E-10 0.9659259
vn 0 1 -1.616233E-08
vn 0 -1 2.021746E-08
vn -0.9659259 -2.138006E-07 0.2588186
vn -0.7071071 -2.51256E-07 0.7071065
vn -0.2588193 -2.193541E-07 0.9659258
vn 0.2588186 -1.305282E-07 0.9659259
vn 0.7071065 8.663343E-09 0.7071071
vn 0.9659258 1.235277E-07 0.2588192
vn 0.9659259 2.151476E-07 -0.2588187
vn 0.707107 2.454875E-07 -0.7071066
vn 0.2588193 2.085956E-07 -0.9659258
vn -0.2588186 1.317352E-07 -0.9659259
vn -0.7071064 -6.902862E-09 -0.7071072
vn -0.9659259 -1.229332E-07 -0.2588188
vn -1.72265E-07 1 1.748456E-07
vn 1.652995E-07 -1 -1.748456E-07
vn -2.831223E-07 -7.947292E-07 1
vn 1.796419E-07 -1.324549E-07 -1
vn -1 -1.418749E-07 -1.763304E-07
vn 1 1.418749E-07 2.384186E-07
vn -5.285251E-15 -1 2.216795E-08
vn 2.123112E-15 1 -8.904979E-09
vn -5.064555E-07 1.05964E-06 1
vn 1.451486E-07 1.05964E-06 -1
vn -1 2.001419E-08 -1.556343E-07
vn 1 1.230349E-07 2.384186E-07
vn -4.583405E-15 1 1.922419E-08
vn -2.434281E-15 -1 1.021011E-08
vt 0.1656324 0.009923836
vt 0.1620946 0.01741241
vt 0.1331609 0.003743335
vt 0.1366988 -0.003745243
vt 0.1835765 -0.01905281
vt 0.1797495 -0.01170778
vt 0.1513705 -0.02649399
vt 0.1551975 -0.03383901
vt 0.1922888 0.009249086
vt 0.1870064 0.01562805
vt 0.16236 -0.004781612
vt 0.1676424 -0.01116058
vt 0.1241774 0.1348726
vt 0.1160155 0.1362789
vt 0.1105817 0.1047437
vt 0.1187436 0.1033373
vt -0.06076688 0.1528843
vt -0.06689508 0.147313
vt -0.04536895 0.1236354
vt -0.03924075 0.1292068
vt -0.1327131 0.07814606
vt -0.1368276 0.07095814
vt -0.1090556 0.05506103
vt -0.1049412 0.06224894
vt -0.1620946 0.01741239
vt -0.1656324 0.009923811
vt -0.1366988 -0.003745269
vt -0.1331609 0.003743315
vt -0.1797495 -0.01170778
vt -0.1835765 -0.01905281
vt -0.1551975 -0.03383901
vt -0.1513705 -0.02649398
vt -0.1870064 0.01562805
vt -0.1922888 0.009249088
vt -0.1676424 -0.01116057
vt -0.16236 -0.004781614
vt -0.1160155 0.1362789
vt -0.1241774 0.1348726
vt -0.1187436 0.1033373
vt -0.1105817 0.1047437
vt 0.06689502 0.147313
vt 0.06076682 0.1528844
vt 0.03924069 0.1292068
vt 0.0453689 0.1236355
vt 0.1368276 0.07095812
vt 0.1327131 0.07814603
vt 0.1049412 0.06224892
vt 0.1090557 0.05506101
vt -0.1006984 -0.07737634
vt -0.09321347 -0.08092184
vt -0.08495857 -0.08024986
vt -0.07814561 -0.07554046
vt -0.07460011 -0.06805553
vt -0.07527209 -0.05980061
vt -0.07998149 -0.05298765
vt -0.08746643 -0.04944215
vt -0.09572134 -0.05011413
vt -0.1025343 -0.05482353
vt -0.1060798 -0.06230847
vt -0.1054078 -0.07056338
vt 0.1054078 -0.07056338
vt 0.1060798 -0.06230847
vt 0.1025343 -0.05482353
vt 0.09572134 -0.05011413
vt 0.08746643 -0.04944215
vt 0.07998149 -0.05298764
vt 0.07527209 -0.05980061
vt 0.07460011 -0.06805553
vt 0.07814561 -0.07554046
vt 0.08495857 -0.08024986
vt 0.09321347 -0.08092184
vt 0.1006984 -0.07737634
vt -0.1105818 0.1047435
vt -0.1187437 0.1033372
vt -0.1133099 0.0718019
vt -0.1051479 0.07320829
vt 0.04536889 0.1236355
vt 0.03924069 0.1292069
vt 0.01771458 0.1055293
vt 0.02384277 0.09995796
vt 0.1090556 0.05506105
vt 0.1049412 0.06224896
vt 0.07716921 0.04635185
vt 0.08128368 0.03916394
vt 0.1366988 -0.00374521
vt 0.1331609 0.003743369
vt 0.1042273 -0.009925706
vt 0.1077651 -0.01741428
vt 0.1551975 -0.03383901
vt 0.1513705 -0.02649398
vt 0.1229915 -0.04128018
vt 0.1268184 -0.04862521
vt 0.1676424 -0.01116062
vt 0.16236 -0.00478166
vt 0.1377136 -0.0251913
vt 0.142996 -0.03157027
vt 0.1187437 0.1033372
vt 0.1105818 0.1047436
vt 0.1051479 0.07320829
vt 0.1133098 0.07180192
vt -0.03924072 0.1292068
vt -0.04536892 0.1236355
vt -0.02384279 0.09995794
vt -0.0177146 0.1055293
vt -0.1049412 0.06224896
vt -0.1090556 0.05506105
vt -0.08128367 0.03916395
vt -0.0771692 0.04635186
vt -0.1331609 0.003743364
vt -0.1366988 -0.003745214
vt -0.1077651 -0.01741429
vt -0.1042273 -0.009925707
vt -0.1513705 -0.02649398
vt -0.1551975 -0.03383902
vt -0.1268184 -0.04862521
vt -0.1229915 -0.04128017
vt -0.16236 -0.004781605
vt -0.1676424 -0.01116056
vt -0.142996 -0.03157022
vt -0.1377136 -0.02519126
vt -0.07814558 -0.07554045
vt -0.07460009 -0.0680555
vt -0.07527207 -0.05980059
vt -0.07998147 -0.05298763
vt -0.08746642 -0.04944213
vt -0.09572132 -0.05011411
vt -0.1025343 -0.05482352
vt -0.1060798 -0.06230846
vt -0.1054078 -0.07056336
vt -0.1006984 -0.07737633
vt -0.09321345 -0.08092182
vt -0.08495855 -0.08024985
vt 0.08495854 -0.08024984
vt 0.09321345 -0.08092183
vt 0.1006984 -0.07737633
vt 0.1054078 -0.07056336
vt 0.1060798 -0.06230847
vt 0.1025343 -0.05482352
vt 0.09572132 -0.05011411
vt 0.08746642 -0.04944213
vt 0.07998147 -0.05298763
vt 0.07527207 -0.05980059
vt 0.07460009 -0.0680555
vt 0.07814558 -0.07554045
vt 0.1578665 0.02414959
vt 0.1628976 0.02666517
vt 0.146798 0.05886453
vt 0.1417668 0.05634896
vt -0.1578664 0.02414957
vt -0.1417667 0.05634893
vt -0.1467979 0.0588645
vt -0.1628975 0.02666514
vt -0.1900649 0.05103266
vt -0.1607705 0.07195724
vt -0.16404 0.07653448
vt -0.1933344 0.0556099
vt 0.1900649 0.05103263
vt 0.1933344 0.05560987
vt 0.16404 0.07653446
vt 0.1607705 0.07195721
vt 0.1012373 -0.0881874
vt 0.1133454 -0.05428471
vt 0.07944268 -0.0421766
vt 0.06733457 -0.07607929
vt -0.1012373 -0.0881874
vt -0.06733456 -0.07607929
vt -0.07944267 -0.0421766
vt -0.1133454 -0.05428471
vt 0.08631207 0.02862168
vt 0.08128093 0.02610611
vt 0.09738062 -0.006093242
vt 0.1024118 -0.003577667
vt -0.09738083 -0.006093242
vt -0.08128116 0.02610612
vt -0.08631231 0.02862169
vt -0.102412 -0.003577671
vt -0.1512672 -0.004359297
vt -0.1219728 0.01656527
vt -0.1252423 0.02114251
vt -0.1545367 0.0002179461
vt 0.1252423 0.02114247
vt 0.1219728 0.01656523
vt 0.1512672 -0.004359359
vt 0.1545367 0.0002178903
vt -0.06792314 -0.07628949
vt -0.08003126 -0.0423868
vt -0.1139339 -0.05449492
vt -0.1018258 -0.0883976
vt 0.113934 -0.05449492
vt 0.08003125 -0.0423868
vt 0.06792314 -0.07628949
vt 0.1018258 -0.08839761
o group1366017058
g mesh1366017058
usemtl mat21
f 4/4/1 3/3/1 2/2/1 1/1/1
f 3/8/2 6/7/2 5/6/2 2/5/2
f 6/12/3 8/11/3 7/10/3 5/9/3
f 8/16/4 10/15/4 9/14/4 7/13/4
f 10/20/5 12/19/5 11/18/5 9/17/5
f 12/24/6 14/23/6 13/22/6 11/21/6
f 14/28/7 16/27/7 15/26/7 13/25/7
f 16/32/8 18/31/8 17/30/8 15/29/8
f 18/36/9 20/35/9 19/34/9 17/33/9
f 20/40/10 22/39/10 21/38/10 19/37/10
f 22/44/11 24/43/11 23/42/11 21/41/11
f 24/48/12 4/47/12 1/46/12 23/45/12
f 1/60/13 2/59/13 5/58/13 7/57/13 9/56/13 11/55/13 13/54/13 15/53/13 17/52/13 19/51/13 21/50/13 23/49/13
f 24/72/14 22/71/14 20/70/14 18/69/14 16/68/14 14/67/14 12/66/14 10/65/14 8/64/14 6/63/14 3/62/14 4/61/14
o group1504379279
g mesh1504379279
usemtl mat21
f 28/76/15 27/75/15 26/74/15 25/73/15
f 27/80/16 30/79/16 29/78/16 26/77/16
f 30/84/17 32/83/17 31/82/17 29/81/17
f 32/88/18 34/87/18 33/86/18 31/85/18
f 34/92/19 36/91/19 35/90/19 33/89/19
f 36/96/20 38/95/20 37/94/20 35/93/20
f 38/100/21 40/99/21 39/98/21 37/97/21
f 40/104/22 42/103/22 41/102/22 39/101/22
f 42/108/23 44/107/23 43/106/23 41/105/23
f 44/112/24 46/111/24 45/110/24 43/109/24
f 46/116/25 48/115/25 47/114/25 45/113/25
f 48/120/26 28/119/26 25/118/26 47/117/26
f 25/132/27 26/131/27 29/130/27 31/129/27 33/128/27 35/127/27 37/126/27 39/125/27 41/124/27 43/123/27 45/122/27 47/121/27
f 48/144/28 46/143/28 44/142/28 42/141/28 40/140/28 38/139/28 36/138/28 34/137/28 32/136/28 30/135/28 27/134/28 28/133/28
o group1752463157
g mesh1752463157
usemtl mat21
f 52/148/29 51/147/29 50/146/29 49/145/29
f 56/152/30 55/151/30 54/150/30 53/149/30
f 50/156/31 56/155/31 53/154/31 49/153/31
f 54/160/32 55/159/32 51/158/32 52/157/32
f 53/164/33 54/163/33 52/162/33 49/161/33
f 51/168/34 55/167/34 56/166/34 50/165/34
o group1146020142
g mesh1146020142
usemtl mat21
f 60/172/35 59/171/35 58/170/35 57/169/35
f 64/176/36 63/175/36 62/174/36 61/173/36
f 60/180/37 64/179/37 61/178/37 59/177/37
f 57/184/38 58/183/38 62/182/38 63/181/38
f 60/188/39 57/187/39 63/186/39 64/185/39
f 59/192/40 61/191/40 62/190/40 58/189/40
