mtllib materials.mtl
v 0 -0.05999994 0
v -0.01777188 -0.05638158 -0.01026064
v -0.02052121 -0.05638158 0
v -0.0102606 -0.05638158 -0.0177719
v 0 -0.05638158 -0.02052122
v 0.01026061 -0.05638158 -0.0177719
v 0.01777188 -0.05638158 -0.01026064
v 0.02052121 -0.05638158 0
v 0.01777188 -0.05638158 0.01026058
v 0.0102606 -0.05638158 0.0177719
v 0 -0.05638158 0.02052116
v -0.0102606 -0.05638158 0.0177719
v -0.01777188 -0.05638158 0.01026058
v -0.03340022 -0.04596269 -0.01928365
v -0.03856726 -0.04596269 0
v -0.01928362 -0.04596269 -0.03340024
v 0 -0.04596269 -0.03856725
v 0.01928362 -0.04596269 -0.03340024
v 0.03340022 -0.04596269 -0.01928365
v 0.03856726 -0.04596269 0
v 0.03340022 -0.04596269 0.01928365
v 0.01928362 -0.04596269 0.03340024
v 0 -0.04596269 0.03856725
v -0.01928362 -0.04596269 0.03340024
v -0.03340024 -0.04596269 0.01928359
v -0.045 -0.02999997 -0.02598077
v -0.05196153 -0.02999997 0
v -0.02598076 -0.02999997 -0.04500002
v 0 -0.02999997 -0.05196154
v 0.02598077 -0.02999997 -0.04500002
v 0.045 -0.02999997 -0.02598077
v 0.05196153 -0.02999997 0
v 0.04499999 -0.02999997 0.02598077
v 0.02598076 -0.02999997 0.04500002
v 0 -0.02999997 0.05196154
v -0.02598076 -0.02999997 0.04500002
v -0.04500002 -0.02999997 0.02598077
v -0.05117211 -0.01041889 -0.02954423
v -0.05908847 -0.01041889 0
v -0.02954423 -0.01041889 -0.05117214
v 0 -0.01041889 -0.05908847
v 0.02954423 -0.01041889 -0.05117214
v 0.05117211 -0.01041889 -0.02954423
v 0.05908847 -0.01041889 0
v 0.05117211 -0.01041889 0.02954423
v 0.02954423 -0.01041889 0.05117214
v 0 -0.01041889 0.05908847
v -0.02954423 -0.01041889 0.05117214
v -0.05117212 -0.01041889 0.02954423
v -0.05117211 0.01041889 -0.02954423
v -0.05908846 0.01041889 0
v -0.02954423 0.01041889 -0.05117214
v 0 0.01041889 -0.05908847
v 0.02954423 0.01041889 -0.05117208
v 0.05117211 0.01041889 -0.02954423
v 0.05908847 0.01041889 0
v 0.05117211 0.01041889 0.02954423
v 0.02954422 0.01041889 0.05117214
v 0 0.01041889 0.05908847
v -0.02954422 0.01041889 0.05117214
v -0.05117212 0.01041889 0.02954423
v -0.045 0.02999997 -0.02598077
v -0.05196153 0.02999997 0
v -0.02598076 0.02999997 -0.04500002
v 0 0.02999997 -0.05196154
v 0.02598077 0.02999997 -0.04500002
v 0.045 0.02999997 -0.02598077
v 0.05196153 0.02999997 0
v 0.04499999 0.02999997 0.02598077
v 0.02598076 0.02999997 0.04500002
v 0 0.02999997 0.05196154
v -0.02598076 0.02999997 0.04500002
v -0.045 0.02999997 0.02598077
v -0.03340022 0.04596269 -0.01928359
v -0.03856726 0.04596269 0
v -0.01928362 0.04596269 -0.03340024
v 0 0.04596269 -0.03856725
v 0.01928362 0.04596269 -0.03340024
v 0.03340022 0.04596269 -0.01928359
v 0.03856726 0.04596269 0
v 0.03340022 0.04596269 0.01928365
v 0.01928362 0.04596269 0.03340024
v 0 0.04596269 0.03856725
v -0.01928362 0.04596269 0.03340024
v -0.03340024 0.04596269 0.01928365
v -0.01777188 0.05638158 -0.01026058
v -0.02052119 0.05638158 0
v -0.0102606 0.05638158 -0.01777184
v 0 0.05638158 -0.02052116
v 0.0102606 0.05638158 -0.01777184
v 0.01777188 0.05638158 -0.01026058
v 0.02052119 0.05638158 0
v 0.01777188 0.05638158 0.01026064
v 0.0102606 0.05638158 0.0177719
v 0 0.05638158 0.02052122
v -0.0102606 0.05638158 0.0177719
v -0.01777188 0.05638158 0.01026058
v 0 0.05999994 0
vn -0.1734605 -0.9837435 -0.04647865
vn -0.1269819 -0.9837434 -0.1269826
vn -0.04647858 -0.9837434 -0.1734609
vn 0.0464786 -0.9837435 -0.1734606
vn 0.1269819 -0.9837434 -0.126982
vn 0.1734605 -0.9837435 -0.04647839
vn 0.1734604 -0.9837435 0.04647812
vn 0.1269818 -0.9837435 0.1269822
vn 0.04647858 -0.9837436 0.17346
vn -0.04647861 -0.9837436 0.17346
vn -0.1269819 -0.9837435 0.1269818
vn -0.1734605 -0.9837435 0.04647806
vn -0.4955723 -0.8583562 -0.1327885
vn -0.3627841 -0.8583562 -0.3627844
vn -0.1327882 -0.8583561 -0.4955725
vn 0.1327881 -0.8583561 -0.4955725
vn 0.362784 -0.8583561 -0.3627845
vn 0.4955723 -0.8583562 -0.1327883
vn 0.4955722 -0.8583563 0.132788
vn 0.362784 -0.8583564 0.3627839
vn 0.1327882 -0.8583564 0.495572
vn -0.1327882 -0.8583565 0.4955719
vn -0.362784 -0.8583565 0.3627837
vn -0.4955723 -0.8583564 0.1327877
vn -0.7503996 -0.62966 -0.2010691
vn -0.5493307 -0.6296599 -0.5493307
vn -0.2010689 -0.6296599 -0.7503998
vn 0.201069 -0.6296598 -0.7503997
vn 0.5493307 -0.6296599 -0.5493307
vn 0.7503996 -0.62966 -0.2010691
vn 0.7503995 -0.6296601 0.201069
vn 0.5493305 -0.6296602 0.5493305
vn 0.201069 -0.6296603 0.7503994
vn -0.2010689 -0.6296602 0.7503995
vn -0.5493308 -0.62966 0.5493306
vn -0.7503997 -0.62966 0.2010687
vn -0.9112508 -0.3316679 -0.2441691
vn -0.6670819 -0.3316679 -0.6670818
vn -0.2441688 -0.3316678 -0.9112508
vn 0.244169 -0.3316678 -0.9112508
vn 0.6670819 -0.331668 -0.6670819
vn 0.9112507 -0.3316681 -0.244169
vn 0.9112507 -0.3316682 0.244169
vn 0.6670817 -0.3316683 0.6670818
vn 0.2441688 -0.3316683 0.9112507
vn -0.2441688 -0.3316683 0.9112507
vn -0.6670818 -0.3316683 0.6670818
vn -0.9112508 -0.3316681 0.2441686
vn -0.9659258 1.817891E-07 -0.2588191
vn -0.7071068 3.515141E-07 -0.7071068
vn -0.258819 4.335792E-07 -0.9659259
vn 0.2588191 4.388303E-07 -0.9659258
vn 0.7071068 4.062529E-07 -0.7071068
vn 0.9659259 1.764538E-07 -0.258819
vn 0.9659258 6.414732E-08 0.2588193
vn 0.7071068 -3.536756E-08 0.7071069
vn 0.258819 -7.302928E-08 0.9659259
vn -0.258819 -7.181102E-08 0.9659259
vn -0.7071068 7.625255E-08 0.7071068
vn -0.9659259 3.465254E-08 0.2588189
vn -0.9112508 0.3316679 -0.2441688
vn -0.6670818 0.3316683 -0.6670818
vn -0.2441689 0.3316683 -0.9112507
vn 0.2441689 0.3316682 -0.9112507
vn 0.6670818 0.3316682 -0.6670818
vn 0.9112507 0.3316682 -0.2441688
vn 0.9112507 0.3316679 0.2441692
vn 0.6670818 0.3316679 0.667082
vn 0.2441689 0.3316678 0.9112508
vn -0.2441689 0.3316678 0.9112508
vn -0.6670819 0.3316678 0.667082
vn -0.9112507 0.3316681 0.2441689
vn -0.7503996 0.6296601 -0.2010688
vn -0.5493307 0.6296601 -0.5493305
vn -0.2010689 0.6296602 -0.7503995
vn 0.2010689 0.6296602 -0.7503994
vn 0.5493307 0.6296602 -0.5493305
vn 0.7503995 0.6296602 -0.2010688
vn 0.7503995 0.62966 0.2010693
vn 0.5493305 0.6296599 0.5493309
vn 0.2010689 0.6296598 0.7503998
vn -0.2010689 0.6296599 0.7503997
vn -0.5493307 0.6296599 0.5493308
vn -0.7503997 0.62966 0.2010689
vn -0.4955723 0.8583564 -0.1327878
vn -0.362784 0.8583564 -0.3627837
vn -0.1327881 0.8583564 -0.495572
vn 0.1327881 0.8583565 -0.4955719
vn 0.362784 0.8583564 -0.3627839
vn 0.4955723 0.8583563 -0.1327879
vn 0.4955723 0.8583562 0.1327886
vn 0.3627841 0.8583562 0.3627844
vn 0.1327881 0.8583561 0.4955725
vn -0.1327881 0.8583562 0.4955724
vn -0.3627841 0.8583562 0.3627842
vn -0.4955722 0.8583563 0.1327881
vn -0.1734604 0.9837435 -0.04647782
vn -0.1269818 0.9837435 -0.1269816
vn -0.04647851 0.9837435 -0.1734604
vn 0.04647853 0.9837436 -0.1734598
vn 0.1269818 0.9837436 -0.1269812
vn 0.1734604 0.9837435 -0.04647847
vn 0.1734603 0.9837435 0.04647832
vn 0.1269818 0.9837434 0.1269822
vn 0.04647852 0.9837435 0.1734604
vn -0.04647851 0.9837434 0.1734608
vn -0.1269818 0.9837435 0.1269821
vn -0.1734604 0.9837435 0.04647909
vt 0.04850689 -0.03570995
vt 0.0468452 -0.03696728
vt 0.0476809 -0.03762303
vt 0.0376009 -0.02358666
vt 0.03552727 -0.02379214
vt 0.035898 -0.02478761
vt 0.03588538 -0.006737576
vt 0.03398371 -0.005885651
vt 0.03381086 -0.006933749
vt 0.04274128 0.009499616
vt 0.04148202 0.01115986
vt 0.04082725 0.01032341
vt 0.0556721 0.02095305
vt 0.05534728 0.02301135
vt 0.05437487 0.02258379
vt 0.07117974 0.02529739
vt 0.07186238 0.02726618
vt 0.0708032 0.02734686
vt 0.0855274 0.022275
vt 0.08705708 0.02368998
vt 0.08616083 0.02426016
vt 0.09561778 0.01313673
vt 0.09763552 0.01365713
vt 0.09711682 0.01458414
vt 0.09935901 -0.0003357491
vt 0.1013765 -0.0008572831
vt 0.1013714 0.0002049587
vt 0.09542257 -0.01602229
vt 0.09690216 -0.01748958
vt 0.09743319 -0.01656959
vt 0.08347699 -0.03043323
vt 0.08395465 -0.03246152
vt 0.08489241 -0.03196252
vt 0.06586491 -0.03831826
vt 0.06515422 -0.0402771
vt 0.06621215 -0.0403729
vt -0.01008402 -0.08666374
vt -0.01075606 -0.08584107
vt -0.01262425 -0.0867641
vt -0.01136125 -0.0883102
vt -0.03536634 -0.0410283
vt -0.03551287 -0.0399762
vt -0.03758864 -0.03979373
vt -0.03731326 -0.04177103
vt -0.03132655 0.008378467
vt -0.03100993 0.009392439
vt -0.03280917 0.01044357
vt -0.03340422 0.008537922
vt -0.007825844 0.05144722
vt -0.007120953 0.0522419
vt -0.008330242 0.05393889
vt -0.009655001 0.05244537
vt 0.03042953 0.07945725
vt 0.03140863 0.07986926
vt 0.03105148 0.0819222
vt 0.02921137 0.08114788
vt 0.07504455 0.08567621
vt 0.07610392 0.08559787
vt 0.07671949 0.08758865
vt 0.07472853 0.08773588
vt 0.1132741 0.07280128
vt 0.114185 0.07225474
vt 0.1156303 0.07375579
vt 0.1139184 0.07478294
vt 0.1376891 0.05095094
vt 0.1382828 0.05007004
vt 0.1402278 0.0508176
vt 0.1391121 0.05247315
vt 0.1487933 0.02538656
vt 0.1489739 0.02433977
vt 0.1510545 0.02422472
vt 0.1507151 0.02619205
vt 0.1471788 -0.008235769
vt 0.1468739 -0.009253324
vt 0.1486851 -0.01028365
vt 0.1492582 -0.00837127
vt 0.1230021 -0.05764984
vt 0.1221732 -0.05831415
vt 0.1230787 -0.06019089
vt 0.1246365 -0.05894239
vt 0.05688242 -0.1006859
vt 0.05582932 -0.1005467
vt 0.05510022 -0.1024988
vt 0.05707939 -0.1027603
vt -0.09825557 -0.08964874
vt -0.09877162 -0.0877202
vt -0.1008461 -0.08791645
vt -0.1001509 -0.09051476
vt -0.1052517 -0.02521915
vt -0.1050402 -0.02323399
vt -0.1070467 -0.02267165
vt -0.1073316 -0.02534625
vt -0.08917803 0.03534237
vt -0.08840766 0.03718414
vt -0.0901695 0.03829684
vt -0.0912074 0.03581543
vt -0.05449821 0.09168278
vt -0.05317939 0.09318154
vt -0.05449295 0.09479918
vt -0.05626979 0.0927799
vt 0.004297941 0.1308803
vt 0.006113072 0.1317115
vt 0.005572791 0.133724
vt 0.003127271 0.1326041
vt 0.07913379 0.1328787
vt 0.08112355 0.1327162
vt 0.08163632 0.1347359
vt 0.07895553 0.1349548
vt 0.1367366 0.1030974
vt 0.1384155 0.1020172
vt 0.1398188 0.1035576
vt 0.1375569 0.1050129
vt 0.1643101 0.07367446
vt 0.1654583 0.07204129
vt 0.1673386 0.07293943
vt 0.1657916 0.0751398
vt 0.1743243 0.05524343
vt 0.1749254 0.05333969
vt 0.1769892 0.05362781
vt 0.1761793 0.0561927
vt 0.1769607 0.03649744
vt 0.1769796 0.03450114
vt 0.1790375 0.0341739
vt 0.1790121 0.0368635
vt 0.1718576 -0.01473627
vt 0.1710014 -0.01653973
vt 0.1727089 -0.01773414
vt 0.1738625 -0.01530435
vt 0.02549427 -0.1543648
vt 0.02358737 -0.1537738
vt 0.02264794 -0.1556338
vt 0.0252171 -0.1564301
vt -0.1693947 -0.0132281
vt -0.1686185 -0.01065281
vt -0.1705526 -0.009877211
vt -0.1714352 -0.01280572
vt -0.1537496 0.01285598
vt -0.1528965 0.01540684
vt -0.1548064 0.01624008
vt -0.1557765 0.01333935
vt -0.1335377 0.06073965
vt -0.1323883 0.06317139
vt -0.134186 0.06422517
vt -0.1354931 0.06145989
vt -0.09878559 0.1169738
vt -0.09714557 0.1191057
vt -0.09867823 0.1205175
vt -0.1005432 0.1180932
vt -0.02843763 0.1658179
vt -0.02610631 0.1671593
vt -0.02698162 0.1690504
vt -0.0296327 0.1675249
vt 0.08497406 0.1613485
vt 0.08764915 0.1610684
vt 0.08804878 0.1631135
vt 0.08500677 0.163432
vt 0.1584635 0.1050976
vt 0.160571 0.1034264
vt 0.1620052 0.1049381
vt 0.1596086 0.1068385
vt 0.1772449 0.07458312
vt 0.1787086 0.07232653
vt 0.1805503 0.07330129
vt 0.1788858 0.07586738
vt 0.1773498 0.07483575
vt 0.1783886 0.07235471
vt 0.1803744 0.07298617
vt 0.1791931 0.0758075
vt 0.1705815 0.08983857
vt 0.1713797 0.08727001
vt 0.1734165 0.0877098
vt 0.1725088 0.09063067
vt 0.1523311 0.1155187
vt 0.1531912 0.1129702
vt 0.1552168 0.1134592
vt 0.1542387 0.1163572
vt -0.1559906 0.09733567
vt -0.1538015 0.09889856
vt -0.1548575 0.100695
vt -0.1573468 0.09891774
vt -0.1779784 0.06722953
vt -0.1760276 0.06958531
vt -0.1776325 0.07091434
vt -0.1795833 0.06855857
vt -0.1765785 0.05055645
vt -0.1751652 0.05326899
vt -0.1770132 0.05423184
vt -0.1784265 0.0515193
vt -0.1637126 0.07475691
vt -0.162406 0.07752246
vt -0.1642901 0.07841256
vt -0.1655967 0.07564701
vt -0.1401364 0.1174299
vt -0.1386169 0.1200845
vt -0.1404254 0.1211197
vt -0.1419449 0.1184651
vt -0.07823877 0.1720822
vt -0.07597561 0.1741397
vt -0.07737735 0.1756816
vt -0.07964051 0.173624
vt 0.09710067 0.1658787
vt 0.1001149 0.1653594
vt 0.1004687 0.1674129
vt 0.0974545 0.1679323
vt 0.1760276 0.06958523
vt 0.1779784 0.06722946
vt 0.1795833 0.0685585
vt 0.1776325 0.07091426
vt 0.1751651 0.05326896
vt 0.1765785 0.05055641
vt 0.1784264 0.05151926
vt 0.1770131 0.0542318
vt 0.162406 0.07752245
vt 0.1637125 0.0747569
vt 0.1655966 0.075647
vt 0.1642901 0.07841256
vt 0.1386169 0.1200845
vt 0.1401364 0.11743
vt 0.1419449 0.1184651
vt 0.1404254 0.1211197
vt 0.07597551 0.1741398
vt 0.07823868 0.1720822
vt 0.07964041 0.1736241
vt 0.07737725 0.1756816
vt -0.1001149 0.1653593
vt -0.09710071 0.1658787
vt -0.09745455 0.1679322
vt -0.1004688 0.1674129
vt -0.1608742 0.1035119
vt -0.1584776 0.1054124
vt -0.1599118 0.1069241
vt -0.1620193 0.1052528
vt -0.1790233 0.07231079
vt -0.1773588 0.07487689
vt -0.1792005 0.07585164
vt -0.1806642 0.07359506
vt -0.1786954 0.07228321
vt -0.1775142 0.07510454
vt -0.1795 0.075736
vt -0.1805387 0.07325496
vt -0.1716783 0.08716966
vt -0.1707707 0.09009053
vt -0.1728075 0.09053032
vt -0.1736057 0.08796176
vt -0.1534922 0.1128772
vt -0.1525141 0.1157752
vt -0.1545397 0.1162642
vt -0.1553998 0.1137157
vt 0.1537998 0.0992137
vt 0.1562891 0.09743645
vt 0.157345 0.09923288
vt 0.1551559 0.1007958
vt 0.1688098 -0.01040248
vt 0.1696925 -0.01333099
vt 0.1716266 -0.01255539
vt 0.1708504 -0.009980098
vt 0.1530802 0.0156628
vt 0.1540503 0.01276207
vt 0.1559602 0.0135953
vt 0.1551072 0.01614616
vt 0.1325404 0.06344731
vt 0.1338475 0.06068203
vt 0.1356452 0.0617358
vt 0.1344957 0.06416754
vt 0.09723557 0.1194077
vt 0.09910052 0.1169834
vt 0.1006332 0.1183951
vt 0.09899317 0.120527
vt 0.02607385 0.1674727
vt 0.02872493 0.1659473
vt 0.02960024 0.1678383
vt 0.02726892 0.1691798
vt -0.08785924 0.1613032
vt -0.08481722 0.1616218
vt -0.08521686 0.1636669
vt -0.08789195 0.1633867
vt -0.1389209 0.1021621
vt -0.136659 0.1036174
vt -0.1380623 0.1051578
vt -0.1397412 0.1040776
vt -0.165981 0.07198507
vt -0.1644341 0.07418544
vt -0.1663144 0.07508358
vt -0.1674626 0.0734504
vt -0.1754068 0.05312814
vt -0.1745969 0.05569304
vt -0.1766607 0.05598115
vt -0.1772618 0.05407742
vt -0.1773781 0.0341582
vt -0.1773527 0.03684781
vt -0.1794106 0.03652056
vt -0.1794295 0.03452427
vt -0.1712098 -0.0170225
vt -0.1723634 -0.01459271
vt -0.1740709 -0.01578713
vt -0.1732147 -0.01759058
vt -0.02313937 -0.1540487
vt -0.02570852 -0.154845
vt -0.0247691 -0.156705
vt -0.0228622 -0.156114
vt 0.09924312 -0.08748748
vt 0.09854785 -0.0900858
vt 0.1006224 -0.09028205
vt 0.1011384 -0.0883535
vt 0.1053966 -0.02284737
vt 0.1056815 -0.02552197
vt 0.107688 -0.02495963
vt 0.1074765 -0.02297447
vt 0.0886386 0.03765651
vt 0.08967651 0.0351751
vt 0.09143834 0.0362878
vt 0.09066798 0.03812956
vt 0.05324717 0.09370293
vt 0.05502401 0.09168366
vt 0.05633757 0.09330128
vt 0.05501875 0.09480004
vt -0.006263672 0.1322152
vt -0.003818152 0.1310954
vt -0.003277869 0.1331079
vt -0.005093001 0.1339391
vt -0.08150128 0.133082
vt -0.07882048 0.1333009
vt -0.07933326 0.1353206
vt -0.08132303 0.1351581
vt -0.1147664 0.07231606
vt -0.1130545 0.07334321
vt -0.1144999 0.07484426
vt -0.1154107 0.07429771
vt -0.1388355 0.04987928
vt -0.1377198 0.05153482
vt -0.1396648 0.05228239
vt -0.1402585 0.05140149
vt -0.1493999 0.02393929
vt -0.1490605 0.02590661
vt -0.1511411 0.02579157
vt -0.1513217 0.02474478
vt -0.1470767 -0.009801683
vt -0.1476498 -0.007889306
vt -0.149461 -0.008919629
vt -0.1491561 -0.009937183
vt -0.1220287 -0.05888068
vt -0.1235866 -0.05763219
vt -0.1244921 -0.05950892
vt -0.1236632 -0.06017323
vt -0.05532026 -0.1008342
vt -0.05729943 -0.1010958
vt -0.05657033 -0.1030479
vt -0.05551723 -0.1029087
vt 0.01132398 -0.08570188
vt 0.01006098 -0.08724798
vt 0.01192917 -0.08817101
vt 0.0126012 -0.08734834
vt 0.03592566 -0.03956212
vt 0.03565028 -0.04153943
vt 0.03772605 -0.04135696
vt 0.03787258 -0.04030486
vt 0.03120647 0.009943129
vt 0.03180152 0.008037485
vt 0.03360076 0.009088611
vt 0.03328414 0.01010258
vt 0.007074135 0.05282472
vt 0.008398893 0.0513312
vt 0.009608181 0.05302819
vt 0.008903291 0.05382287
vt -0.03170277 0.08037461
vt -0.02986266 0.07960029
vt -0.02950551 0.08165323
vt -0.03048461 0.08206524
vt -0.07659568 0.08591416
vt -0.07460473 0.0860614
vt -0.0752203 0.08805219
vt -0.07627966 0.08797385
vt -0.08605061 0.02210802
vt -0.08515436 0.02267821
vt -0.08668405 0.02409319
vt -0.09599922 0.01274159
vt -0.09548052 0.01366859
vt -0.09749825 0.014189
vt -0.09950159 -0.0008662146
vt -0.09949654 0.0001960287
vt -0.101514 -0.0003255049
vt -0.09527828 -0.01655227
vt -0.09580931 -0.01563227
vt -0.09728889 -0.01709956
vt -0.08307377 -0.03080631
vt -0.08401152 -0.03030731
vt -0.08448917 -0.0323356
vt -0.0653234 -0.03840978
vt -0.06638133 -0.03850559
vt -0.06567064 -0.04046442
vt -0.04800269 -0.03549222
vt -0.0488384 -0.03614796
vt -0.0471767 -0.03740529
vt -0.0372844 -0.0231378
vt -0.03765513 -0.02413326
vt -0.03558151 -0.02433875
vt -0.03583377 -0.006190768
vt -0.03566092 -0.007238866
vt -0.03375924 -0.006386942
vt -0.04295837 0.01000414
vt -0.0423036 0.009167683
vt -0.04104435 0.01082793
vt -0.05610195 0.02129498
vt -0.05512954 0.02086742
vt -0.05480472 0.02292572
vt -0.07171984 0.02539665
vt -0.07066067 0.02547734
vt -0.07134331 0.02744613
o group245769060
g mesh245769060
usemtl mat22
f 3/3/1 2/2/1 1/1/1
f 2/6/2 4/5/2 1/4/2
f 4/9/3 5/8/3 1/7/3
f 5/12/4 6/11/4 1/10/4
f 6/15/5 7/14/5 1/13/5
f 7/18/6 8/17/6 1/16/6
f 8/21/7 9/20/7 1/19/7
f 9/24/8 10/23/8 1/22/8
f 10/27/9 11/26/9 1/25/9
f 11/30/10 12/29/10 1/28/10
f 12/33/11 13/32/11 1/31/11
f 13/36/12 3/35/12 1/34/12
f 15/40/13 14/39/13 2/38/13 3/37/13
f 14/44/14 16/43/14 4/42/14 2/41/14
f 16/48/15 17/47/15 5/46/15 4/45/15
f 17/52/16 18/51/16 6/50/16 5/49/16
f 18/56/17 19/55/17 7/54/17 6/53/17
f 19/60/18 20/59/18 8/58/18 7/57/18
f 20/64/19 21/63/19 9/62/19 8/61/19
f 21/68/20 22/67/20 10/66/20 9/65/20
f 22/72/21 23/71/21 11/70/21 10/69/21
f 23/76/22 24/75/22 12/74/22 11/73/22
f 24/80/23 25/79/23 13/78/23 12/77/23
f 25/84/24 15/83/24 3/82/24 13/81/24
f 27/88/25 26/87/25 14/86/25 15/85/25
f 26/92/26 28/91/26 16/90/26 14/89/26
f 28/96/27 29/95/27 17/94/27 16/93/27
f 29/100/28 30/99/28 18/98/28 17/97/28
f 30/104/29 31/103/29 19/102/29 18/101/29
f 31/108/30 32/107/30 20/106/30 19/105/30
f 32/112/31 33/111/31 21/110/31 20/109/31
f 33/116/32 34/115/32 22/114/32 21/113/32
f 34/120/33 35/119/33 23/118/33 22/117/33
f 35/124/34 36/123/34 24/122/34 23/121/34
f 36/128/35 37/127/35 25/126/35 24/125/35
f 37/132/36 27/131/36 15/130/36 25/129/36
f 39/136/37 38/135/37 26/134/37 27/133/37
f 38/140/38 40/139/38 28/138/38 26/137/38
f 40/144/39 41/143/39 29/142/39 28/141/39
f 41/148/40 42/147/40 30/146/40 29/145/40
f 42/152/41 43/151/41 31/150/41 30/149/41
f 43/156/42 44/155/42 32/154/42 31/153/42
f 44/160/43 45/159/43 33/158/43 32/157/43
f 45/164/44 46/163/44 34/162/44 33/161/44
f 46/168/45 47/167/45 35/166/45 34/165/45
f 47/172/46 48/171/46 36/170/46 35/169/46
f 48/176/47 49/175/47 37/174/47 36/173/47
f 49/180/48 39/179/48 27/178/48 37/177/48
f 51/184/49 50/183/49 38/182/49 39/181/49
f 50/188/50 52/187/50 40/186/50 38/185/50
f 52/192/51 53/191/51 41/190/51 40/189/51
f 53/196/52 54/195/52 42/194/52 41/193/52
f 54/200/53 55/199/53 43/198/53 42/197/53
f 55/204/54 56/203/54 44/202/54 43/201/54
f 56/208/55 57/207/55 45/206/55 44/205/55
f 57/212/56 58/211/56 46/210/56 45/209/56
f 58/216/57 59/215/57 47/214/57 46/213/57
f 59/220/58 60/219/58 48/218/58 47/217/58
f 60/224/59 61/223/59 49/222/59 48/221/59
f 61/228/60 51/227/60 39/226/60 49/225/60
f 63/232/61 62/231/61 50/230/61 51/229/61
f 62/236/62 64/235/62 52/234/62 50/233/62
f 64/240/63 65/239/63 53/238/63 52/237/63
f 65/244/64 66/243/64 54/242/64 53/241/64
f 66/248/65 67/247/65 55/246/65 54/245/65
f 67/252/66 68/251/66 56/250/66 55/249/66
f 68/256/67 69/255/67 57/254/67 56/253/67
f 69/260/68 70/259/68 58/258/68 57/257/68
f 70/264/69 71/263/69 59/262/69 58/261/69
f 71/268/70 72/267/70 60/266/70 59/265/70
f 72/272/71 73/271/71 61/270/71 60/269/71
f 73/276/72 63/275/72 51/274/72 61/273/72
f 75/280/73 74/279/73 62/278/73 63/277/73
f 74/284/74 76/283/74 64/282/74 62/281/74
f 76/288/75 77/287/75 65/286/75 64/285/75
f 77/292/76 78/291/76 66/290/76 65/289/76
f 78/296/77 79/295/77 67/294/77 66/293/77
f 79/300/78 80/299/78 68/298/78 67/297/78
f 80/304/79 81/303/79 69/302/79 68/301/79
f 81/308/80 82/307/80 70/306/80 69/305/80
f 82/312/81 83/311/81 71/310/81 70/309/81
f 83/316/82 84/315/82 72/314/82 71/313/82
f 84/320/83 85/319/83 73/318/83 72/317/83
f 85/324/84 75/323/84 63/322/84 73/321/84
f 87/328/85 86/327/85 74/326/85 75/325/85
f 86/332/86 88/331/86 76/330/86 74/329/86
f 88/336/87 89/335/87 77/334/87 76/333/87
f 89/340/88 90/339/88 78/338/88 77/337/88
f 90/344/89 91/343/89 79/342/89 78/341/89
f 91/348/90 92/347/90 80/346/90 79/345/90
f 92/352/91 93/351/91 81/350/91 80/349/91
f 93/356/92 94/355/92 82/354/92 81/353/92
f 94/360/93 95/359/93 83/358/93 82/357/93
f 95/364/94 96/363/94 84/362/94 83/361/94
f 96/368/95 97/367/95 85/366/95 84/365/95
f 97/372/96 87/371/96 75/370/96 85/369/96
f 98/375/97 86/374/97 87/373/97
f 98/378/98 88/377/98 86/376/98
f 98/381/99 89/380/99 88/379/99
f 98/384/100 90/383/100 89/382/100
f 98/387/101 91/386/101 90/385/101
f 98/390/102 92/389/102 91/388/102
f 98/393/103 93/392/103 92/391/103
f 98/396/104 94/395/104 93/394/104
f 98/399/105 95/398/105 94/397/105
f 98/402/106 96/401/106 95/400/106
f 98/405/107 97/404/107 96/403/107
f 98/408/108 87/407/108 97/406/108
